<svg width="125" height="20" viewBox="0 0 125 20" fill="none" xmlns="http://www.w3.org/2000/svg">
<path fill-rule="evenodd" clip-rule="evenodd" d="M38.3807 11.768C37.1343 11.4135 36.2588 11.085 35.7519 10.7824C35.245 10.4809 34.9921 10.1406 34.9921 9.76619C34.9921 9.47417 35.14 9.22454 35.4358 9.01612C35.7316 8.8077 36.1014 8.7029 36.5451 8.7029C37.1355 8.7029 37.6221 8.84891 38.0014 9.14094C38.2459 9.32934 38.4213 9.54364 38.525 9.78268C38.6383 10.0406 38.8996 10.2042 39.1846 10.2042H41.0346C41.5284 10.2042 41.8826 9.72498 41.7228 9.2634C41.4365 8.43561 40.9666 7.73852 40.3142 7.17096C39.4279 6.39969 38.1923 6.01465 36.6083 6.01465C35.2784 6.01465 34.1107 6.37968 33.1088 7.10973C32.1057 7.83979 31.6035 8.81948 31.6035 10.0488C31.6035 12.0506 33.0921 13.4471 36.0704 14.2384C36.7037 14.4256 37.1629 14.5669 37.448 14.6611C37.733 14.7541 38.0229 14.9107 38.3187 15.1298C38.6145 15.3488 38.7624 15.6043 38.7624 15.8963C38.7624 16.2708 38.6205 16.584 38.3354 16.8348C38.0503 17.0844 37.6651 17.2092 37.1796 17.2092C36.2016 17.2092 35.5265 16.8489 35.1543 16.1283C35.0315 15.8892 34.7822 15.7397 34.5114 15.7397H32.5589C32.0639 15.7397 31.7204 16.2166 31.8707 16.6817C32.1128 17.4271 32.541 18.103 33.1577 18.7106C34.0236 19.5666 35.2796 19.9929 36.9279 19.9929C38.4058 19.9929 39.6355 19.6066 40.6183 18.8365C41.5999 18.0653 42.0913 17.0232 42.0913 15.7091C42.0913 13.8333 40.8557 12.5192 38.3855 11.7691L38.3807 11.768Z" fill="url(#paint0_linear_7104_2598)"/>
<path fill-rule="evenodd" clip-rule="evenodd" d="M56.0746 6.35827H53.7726C53.4983 6.35827 53.2764 6.57729 53.2764 6.84812V7.56522C53.2764 7.62645 53.1977 7.65236 53.1607 7.60408C52.8029 7.13779 52.2924 6.75863 51.6292 6.46896C50.8897 6.14632 50.056 5.99442 49.1268 6.01562C47.2268 6.03681 45.6583 6.71388 44.4238 8.048C43.1882 9.38212 42.5703 11.0707 42.5703 13.1136C42.5906 15.1778 43.2406 16.8405 44.5181 18.1016C45.7955 19.3627 47.3425 19.9938 49.1591 19.9938C50.2146 19.9938 51.1223 19.7795 51.8833 19.3533C52.5059 19.0035 52.9293 18.6432 53.156 18.2723C53.1905 18.2158 53.2776 18.2382 53.2776 18.3041V19.0978C53.2776 19.3686 53.4995 19.5876 53.7738 19.5876H56.0758C56.3501 19.5876 56.572 19.3686 56.572 19.0978V6.84812C56.572 6.57729 56.3501 6.35827 56.0758 6.35827H56.0746ZM53.181 13.2373C53.181 14.1758 52.8327 14.9882 52.1362 15.6771C51.4873 16.3176 50.7013 16.6591 49.7781 16.7039C48.8406 16.7486 47.8995 16.4425 47.1922 15.8337C46.3704 15.1272 45.9601 14.1781 45.9601 12.9877C45.9601 11.9244 46.3036 11.0436 46.9894 10.3453C47.6753 9.64706 48.5364 9.29734 49.5705 9.29734C50.6047 9.29734 51.4658 9.63057 52.1517 10.2982C52.8375 10.9659 53.181 11.7995 53.181 12.8004V13.2385V13.2373Z" fill="url(#paint1_linear_7104_2598)"/>
<path fill-rule="evenodd" clip-rule="evenodd" d="M23.7934 6.34546H22.8285C20.5885 6.34546 19.3075 7.90566 18.7445 8.83354C18.7111 8.88888 18.6264 8.86415 18.6264 8.80057V6.83648C18.6264 6.56565 18.4046 6.34664 18.1302 6.34664H15.8712C15.5969 6.34664 15.375 6.56565 15.375 6.83648V19.0967C15.375 19.3675 15.5969 19.5866 15.8712 19.5866H18.1302C18.4046 19.5866 18.6264 19.3675 18.6264 19.0967V13.0102C18.6264 9.56124 23.7934 9.5059 23.7934 9.5059C24.0677 9.5059 24.2896 9.28688 24.2896 9.01605V6.8353C24.2896 6.56448 24.0677 6.34546 23.7934 6.34546Z" fill="url(#paint2_linear_7104_2598)"/>
<path fill-rule="evenodd" clip-rule="evenodd" d="M7.76002 6.02178C6.76765 6.00059 5.88025 6.1937 5.099 6.59994C4.38096 6.97321 3.80606 7.40418 3.37309 7.89167C3.33373 7.93524 3.26217 7.90933 3.26217 7.85163V4.38858V0.456874C3.26217 0.249632 3.12142 0.0777156 2.93058 0.0211952C2.92343 0.00824257 2.91269 0 2.89361 0H0.462786C0.207538 0 0 0.204887 0 0.456874V19.1039C0 19.3747 0.221851 19.5938 0.496183 19.5938H2.76598C3.04031 19.5938 3.26217 19.3747 3.26217 19.1039V18.136C3.26217 18.0724 3.34566 18.0489 3.38025 18.1019C3.68678 18.5658 4.16508 18.985 4.81393 19.3594C5.55224 19.7869 6.43965 20 7.47495 20C9.29151 20 10.8433 19.3335 12.1314 17.9982C13.4196 16.6641 14.0637 14.9862 14.0637 12.9632C14.084 10.9002 13.4876 9.23167 12.2746 7.95996C11.0604 6.68825 9.5551 6.04298 7.76002 6.02178ZM9.64456 15.7315C8.95754 16.4298 8.08683 16.7795 7.03125 16.7795C6.03888 16.7795 5.17772 16.4404 4.45014 15.7633C3.72137 15.0863 3.35759 14.2467 3.35759 13.2458V12.8396C3.35759 11.7975 3.72137 10.9367 4.45014 10.2596C5.17891 9.58257 6.03888 9.24345 7.03125 9.24345C8.08683 9.24345 8.95873 9.58728 9.64456 10.2749C10.3304 10.9626 10.6739 11.8705 10.6739 12.995C10.6739 14.1195 10.3304 15.0333 9.64456 15.7315Z" fill="url(#paint3_linear_7104_2598)"/>
<path fill-rule="evenodd" clip-rule="evenodd" d="M30.3514 6.8353C30.3514 6.56448 30.1295 6.34546 29.8552 6.34546H27.0248L26.0802 6.34664C25.8058 6.34664 25.584 6.56565 25.584 6.83648V9.01487C25.584 9.2857 25.8058 9.50472 26.0802 9.50472H26.5274C26.8018 9.50472 27.0236 9.72373 27.0236 9.99456V19.0955C27.0236 19.3664 27.2455 19.5854 27.5198 19.5854H29.854C30.1284 19.5854 30.3502 19.3664 30.3502 19.0955V18.8388H30.3609V9.24449H30.3502V6.8353H30.3514Z" fill="url(#paint4_linear_7104_2598)"/>
<path d="M28.0176 4.14954C29.1783 4.14954 30.1193 3.22064 30.1193 2.07477C30.1193 0.928907 29.1783 0 28.0176 0C26.8569 0 25.916 0.928907 25.916 2.07477C25.916 3.22064 26.8569 4.14954 28.0176 4.14954Z" fill="url(#paint5_linear_7104_2598)"/>
<path d="M80.0781 14.3351V6.59062C80.0781 6.41164 80.2248 6.26562 80.4073 6.26562H83.0839C83.2651 6.26562 83.4131 6.41046 83.4131 6.59062V13.9877C83.4131 14.8944 83.6802 15.5962 84.2146 16.0919C84.7489 16.5877 85.4324 16.8361 86.2661 16.8361C87.1428 16.8361 87.8369 16.5724 88.3498 16.0448C88.8627 15.5173 89.1192 14.7896 89.1192 13.8617V6.5918C89.1192 6.41281 89.2659 6.2668 89.4484 6.2668H92.0927C92.274 6.2668 92.4219 6.41164 92.4219 6.5918V19.2653C92.4219 19.4443 92.2752 19.5903 92.0927 19.5903H89.4484C89.2671 19.5903 89.1192 19.4455 89.1192 19.2653V19.1193C89.1192 18.8285 88.7673 18.6919 88.555 18.8932C87.7785 19.6315 86.748 20.0001 85.4646 20.0001C83.84 20.0001 82.5364 19.5091 81.5536 18.5282C80.5707 17.5473 80.0793 16.1496 80.0793 14.3351H80.0781Z" fill="url(#paint6_linear_7104_2598)"/>
<path d="M99.3902 17.1833C99.7898 17.1833 100.121 17.0997 100.387 16.9325C100.551 16.8301 100.681 16.6793 100.78 16.5145C101.128 15.9328 101.048 15.4524 100.544 15.0791C100.244 14.8577 99.9508 14.6999 99.6621 14.6046C99.3735 14.5092 98.9083 14.3667 98.2678 14.1771C95.4971 13.44 94.0002 12.1848 93.7771 10.4126C93.5756 8.80651 94.5166 7.29576 95.9622 6.53038C96.8115 6.08057 97.7621 5.85449 98.8129 5.85449C100.416 5.85449 101.666 6.24543 102.563 7.02494C103.364 7.72202 103.893 8.61222 104.149 9.69435C104.197 9.89806 104.043 10.0947 103.831 10.0947H101.133C100.987 10.0947 100.86 10.0005 100.821 9.86156C100.734 9.53892 100.535 9.25867 100.223 9.01846C99.8375 8.7229 99.3461 8.57572 98.7485 8.57572C98.2988 8.57572 97.9255 8.68169 97.6261 8.89247C97.3267 9.10324 97.1777 9.35641 97.1777 9.65196C97.1777 10.0323 97.4341 10.375 97.947 10.6811C98.4599 10.9873 99.3461 11.3193 100.608 11.6773C103.108 12.4368 104.358 13.7662 104.358 15.6643C104.358 16.9937 103.861 18.0488 102.867 18.8283C101.874 19.609 100.628 19.9987 99.1326 19.9987C97.4663 19.9987 96.1936 19.5666 95.3182 18.7011C94.5417 17.9357 94.0598 17.0609 93.8702 16.08C93.832 15.881 93.9859 15.6949 94.1922 15.6949H96.957C97.0894 15.6949 97.2027 15.7785 97.2528 15.8998C97.6058 16.7547 98.3179 17.1821 99.389 17.1821L99.3902 17.1833Z" fill="url(#paint7_linear_7104_2598)"/>
<path d="M109.994 6.58139V19.2738C109.994 19.448 109.851 19.5893 109.674 19.5893H106.979C106.802 19.5893 106.659 19.448 106.659 19.2738V9.84073C106.659 9.66646 106.516 9.52516 106.34 9.52516H105.697C105.52 9.52516 105.377 9.38386 105.377 9.20959V6.58139C105.377 6.40712 105.52 6.26582 105.697 6.26582H109.674C109.851 6.26582 109.994 6.40712 109.994 6.58139ZM107.929 4.26994C107.338 4.24756 106.85 4.04268 106.467 3.65528C106.06 3.24433 105.858 2.73211 105.858 2.12098C105.858 1.50985 106.066 1.02943 106.483 0.61848C106.899 0.207529 107.418 0.00146484 108.038 0.00146484C108.615 0.00146484 109.116 0.212239 109.544 0.633787C109.971 1.05534 110.185 1.55107 110.185 2.12098C110.185 2.6909 109.981 3.20782 109.573 3.62702C109.148 4.0627 108.54 4.29466 107.928 4.27111L107.929 4.26994Z" fill="url(#paint8_linear_7104_2598)"/>
<path d="M121.612 14.5563H124.547C124.766 14.5563 124.919 14.7636 124.859 14.9708C124.435 16.425 123.632 17.6061 122.45 18.5128C121.158 19.5042 119.667 20 117.979 20C116.055 20 114.436 19.3194 113.122 17.9593C111.808 16.5993 111.15 14.9166 111.15 12.9125C111.15 10.9084 111.84 9.25754 113.217 7.89634C114.596 6.53514 116.235 5.85571 118.138 5.85571C119.868 5.85571 121.385 6.40443 122.689 7.50069C123.894 8.51453 124.661 9.80861 124.989 11.3806C125.03 11.5819 124.88 11.7727 124.671 11.7727H121.829C121.691 11.7727 121.571 11.6844 121.524 11.5572C121.26 10.859 120.847 10.3079 120.284 9.90635C119.664 9.4636 118.949 9.24223 118.136 9.24223C117.153 9.24223 116.314 9.59548 115.621 10.302C114.925 11.0097 114.578 11.8799 114.578 12.9125C114.578 13.9452 114.925 14.8425 115.621 15.5396C116.315 16.2355 117.153 16.584 118.136 16.584C119.625 16.584 120.685 15.9693 121.319 14.74C121.375 14.6305 121.486 14.5587 121.608 14.5587L121.612 14.5563Z" fill="url(#paint9_linear_7104_2598)"/>
<path d="M76.9502 7.23103C75.9578 6.28313 74.6494 5.80859 73.0272 5.80859C71.4051 5.80859 70.0346 6.34201 69.0518 7.41001C68.9206 7.55249 68.6892 7.54895 68.5664 7.39941C67.6909 6.33847 66.5196 5.80859 65.0537 5.80859C64.944 5.80859 64.8366 5.8133 64.7305 5.82037C63.5807 5.84627 62.6205 6.24427 61.85 7.01436C61.6496 7.21572 61.3073 7.0803 61.3073 6.79652V6.52687C61.3073 6.3526 61.1654 6.2113 60.9912 6.2113H58.5055C58.3314 6.2113 58.1895 6.3526 58.1895 6.52687V18.6305C58.1895 18.6588 58.1942 18.6858 58.2014 18.7117V19.2087C58.2014 19.3853 58.3469 19.5289 58.5258 19.5289H61.1749C61.3538 19.5289 61.4993 19.3853 61.4993 19.2087V11.7845C61.4993 10.9202 61.7283 10.2349 62.1875 9.7297C62.6468 9.22337 63.2813 8.97138 64.0936 8.97138C64.9058 8.97138 65.5392 9.21395 65.9984 9.69909C66.4576 10.1842 66.6866 10.8483 66.6866 11.6903V19.2098C66.6866 19.3865 66.8321 19.5301 67.011 19.5301H69.6601C69.839 19.5301 69.9845 19.3865 69.9845 19.2098V11.6903C69.9845 10.8472 70.2195 10.183 70.6895 9.69909C71.1582 9.21395 71.7892 8.97138 72.5788 8.97138C73.3684 8.97138 74.0196 9.20806 74.4681 9.6826C74.9166 10.1571 75.1408 10.826 75.1408 11.6903V19.2098C75.1408 19.3865 75.2863 19.5301 75.4652 19.5301H78.1143C78.2932 19.5301 78.4387 19.3865 78.4387 19.2098V11.3111C78.4387 9.5413 77.9426 8.18128 76.9502 7.23338V7.23103Z" fill="url(#paint10_linear_7104_2598)"/>
<defs>
<linearGradient id="paint0_linear_7104_2598" x1="-12.2848" y1="13.0032" x2="90.4084" y2="13.0032" gradientUnits="userSpaceOnUse">
<stop stop-color="#EF5223"/>
<stop offset="1" stop-color="#ED205D"/>
</linearGradient>
<linearGradient id="paint1_linear_7104_2598" x1="-12.2854" y1="13.0018" x2="90.4079" y2="13.0018" gradientUnits="userSpaceOnUse">
<stop stop-color="#EF5223"/>
<stop offset="1" stop-color="#ED205D"/>
</linearGradient>
<linearGradient id="paint2_linear_7104_2598" x1="-12.2836" y1="12.9666" x2="90.4096" y2="12.9666" gradientUnits="userSpaceOnUse">
<stop stop-color="#EF5223"/>
<stop offset="1" stop-color="#ED205D"/>
</linearGradient>
<linearGradient id="paint3_linear_7104_2598" x1="-12.2841" y1="9.99941" x2="90.4091" y2="9.99941" gradientUnits="userSpaceOnUse">
<stop stop-color="#EF5223"/>
<stop offset="1" stop-color="#ED205D"/>
</linearGradient>
<linearGradient id="paint4_linear_7104_2598" x1="-12.2846" y1="12.9666" x2="90.4087" y2="12.9666" gradientUnits="userSpaceOnUse">
<stop stop-color="#EF5223"/>
<stop offset="1" stop-color="#ED205D"/>
</linearGradient>
<linearGradient id="paint5_linear_7104_2598" x1="-12.2841" y1="2.07477" x2="90.4091" y2="2.07477" gradientUnits="userSpaceOnUse">
<stop stop-color="#EF5223"/>
<stop offset="1" stop-color="#ED205D"/>
</linearGradient>
<linearGradient id="paint6_linear_7104_2598" x1="-12.2847" y1="13.1329" x2="90.4085" y2="13.1329" gradientUnits="userSpaceOnUse">
<stop stop-color="#EF5223"/>
<stop offset="1" stop-color="#ED205D"/>
</linearGradient>
<linearGradient id="paint7_linear_7104_2598" x1="-12.2844" y1="12.9266" x2="90.4088" y2="12.9266" gradientUnits="userSpaceOnUse">
<stop stop-color="#EF5223"/>
<stop offset="1" stop-color="#ED205D"/>
</linearGradient>
<linearGradient id="paint8_linear_7104_2598" x1="-12.2831" y1="9.79481" x2="90.4103" y2="9.79481" gradientUnits="userSpaceOnUse">
<stop stop-color="#EF5223"/>
<stop offset="1" stop-color="#ED205D"/>
</linearGradient>
<linearGradient id="paint9_linear_7104_2598" x1="-12.2847" y1="12.9267" x2="90.4085" y2="12.9267" gradientUnits="userSpaceOnUse">
<stop stop-color="#EF5223"/>
<stop offset="1" stop-color="#ED205D"/>
</linearGradient>
<linearGradient id="paint10_linear_7104_2598" x1="-12.2841" y1="12.6688" x2="90.4092" y2="12.6688" gradientUnits="userSpaceOnUse">
<stop stop-color="#EF5223"/>
<stop offset="1" stop-color="#ED205D"/>
</linearGradient>
</defs>
</svg>
