<?xml version="1.0" standalone="no"?>
<!DOCTYPE svg PUBLIC "-//W3C//DTD SVG 20010904//EN"
 "http://www.w3.org/TR/2001/REC-SVG-20010904/DTD/svg10.dtd">
<svg version="1.0" xmlns="http://www.w3.org/2000/svg"
 width="340.000000pt" height="94.000000pt" viewBox="0 0 340.000000 94.000000"
 preserveAspectRatio="xMidYMid meet">

<g transform="translate(0.000000,94.000000) scale(0.100000,-0.100000)"
fill="#000000" stroke="none">
<path d="M2335 906 c-15 -35 -37 -275 -31 -336 3 -36 31 -55 41 -28 8 23 45
297 45 336 0 65 -33 82 -55 28z"/>
<path d="M1993 918 c-20 -25 -32 -78 -49 -213 -7 -54 -11 -202 -6 -185 2 5 12
10 22 10 17 0 29 33 35 100 8 91 25 134 38 93 39 -125 76 -193 104 -193 22 0
22 1 7 48 -9 26 -20 63 -26 83 -5 19 -26 87 -47 150 -37 112 -55 137 -78 107z"/>
<path d="M2482 919 c-19 -7 -23 -15 -20 -46 3 -33 7 -38 29 -41 23 -3 27 -9
33 -49 3 -25 6 -94 6 -152 l0 -106 114 0 c63 0 112 3 110 7 -2 3 1 8 7 10 5 2
7 11 4 20 -6 15 -20 17 -84 16 -42 -1 -82 2 -89 6 -13 8 -17 158 -6 215 6 31
7 31 58 26 69 -7 84 -10 133 -30 51 -20 73 -15 73 18 0 52 -75 89 -213 107
-97 12 -124 12 -155 -1z"/>
<path d="M2995 871 c-80 -20 -105 -53 -105 -138 0 -55 2 -63 18 -63 19 0 46
45 37 60 -15 24 65 60 133 60 32 0 32 0 34 -52 1 -29 2 -84 2 -122 1 -53 5
-71 18 -79 9 -6 21 -8 25 -3 4 4 10 64 11 133 l4 125 56 -7 c32 -4 76 -15 99
-25 42 -19 43 -19 54 1 24 46 -12 92 -87 109 -46 11 -255 11 -299 1z"/>
<path d="M1497 403 c-4 -3 -7 -11 -7 -17 0 -6 5 -5 12 2 6 6 9 14 7 17 -3 3
-9 2 -12 -2z"/>
<path d="M90 325 c0 -8 5 -15 10 -15 6 0 10 7 10 15 0 8 -4 15 -10 15 -5 0
-10 -7 -10 -15z"/>
<path d="M490 249 c0 -5 5 -7 10 -4 6 3 10 8 10 11 0 2 -4 4 -10 4 -5 0 -10
-5 -10 -11z"/>
<path d="M1448 248 c9 -9 15 -9 24 0 9 9 7 12 -12 12 -19 0 -21 -3 -12 -12z"/>
<path d="M1825 161 c-8 -27 11 -54 21 -28 3 9 1 24 -4 33 -9 16 -10 15 -17 -5z"/>
</g>
</svg>
