<svg xmlns="http://www.w3.org/2000/svg" xmlns:xlink="http://www.w3.org/1999/xlink" viewBox="0 0 268 280" width="268" height="280" preserveAspectRatio="xMidYMid meet" style="width: 100%; height: 100%; transform: translate3d(0px, 0px, 0px); content-visibility: visible;"><defs><clipPath id="__lottie_element_2"><rect width="268" height="280" x="0" y="0"></rect></clipPath></defs><g clip-path="url(#__lottie_element_2)"><g transform="matrix(1,0,0,1,0,-0.019989013671875)" opacity="1" style="display: block;"><path fill="rgb(255,78,8)" fill-opacity="1" d=" M151.2100067138672,46.290000915527344 C149.8800048828125,46 149.42999267578125,44.7400016784668 148.2100067138672,45.5 C148.66000366210938,46.709999084472656 149.5500030517578,46.599998474121094 151.2100067138672,46.290000915527344 C151.2100067138672,46.290000915527344 151.2100067138672,46.290000915527344 151.2100067138672,46.290000915527344z M139.6199951171875,280.010009765625 C139.61000061035156,278.4100036621094 139.60000610351562,276.79998779296875 139.58999633789062,275.20001220703125 C141.91000366210938,273.7300109863281 142.66000366210938,272.8399963378906 140.2100067138672,270.07000732421875 C138.0800018310547,267.6600036621094 135.44000244140625,265.92999267578125 133.42999267578125,263.54998779296875 C131.97999572753906,261.8299865722656 130.32000732421875,260.95001220703125 128.16000366210938,260.82000732421875 C127.93000030517578,260.5899963378906 127.69999694824219,260.3599853515625 127.47000122070312,260.1300048828125 C124.01000213623047,257.2900085449219 120.5999984741211,254.39999389648438 117.02999877929688,251.69000244140625 C116.56999969482422,251.3300018310547 115.1500015258789,251.1199951171875 114.55000305175781,252.27000427246094 C114.08000183105469,252.3300018310547 113.61000061035156,252.38999938964844 113.12999725341797,252.4499969482422 C112.62000274658203,252.19000244140625 110.95999908447266,252.6999969482422 112.31999969482422,251.2100067138672 C113.62000274658203,249.77000427246094 114.97000122070312,248.3800048828125 116.1500015258789,246.85000610351562 C120.80999755859375,240.85000610351562 125.26000213623047,234.49000549316406 132.22000122070312,230.97000122070312 C136.10000610351562,229.00999450683594 138.57000732421875,226.88999938964844 138.5500030517578,222.22000122070312 C138.5399932861328,219.17999267578125 136.6999969482422,216.42999267578125 133.8800048828125,216.63999938964844 C132.44000244140625,216.75 132.22000122070312,216.02000427246094 132.5,214.91000366210938 C133.1300048828125,212.4499969482422 133.83999633789062,210.02000427246094 134.4499969482422,207.55999755859375 C135.13999938964844,204.8000030517578 133.4600067138672,202.61000061035156 131.2100067138672,203.25 C126.69000244140625,204.52999877929688 126.93000030517578,204.47999572753906 125.94000244140625,199.8300018310547 C125.37999725341797,197.22000122070312 126.16000366210938,194.10000610351562 123.63999938964844,192.0500030517578 C120.7699966430664,189.7100067138672 117.37999725341797,191.77000427246094 114.2699966430664,191 C113.0199966430664,190.69000244140625 111.66999816894531,190.05999755859375 110.2699966430664,190.27000427246094 C108.75,188.91000366210938 109.69000244140625,187.16000366210938 109.5999984741211,185.61000061035156 C109.5,183.85000610351562 110.37000274658203,182.2100067138672 109.58999633789062,180.27999877929688 C108.06999969482422,176.5500030517578 108.2699966430664,172.91000366210938 109.93000030517578,168.9600067138672 C111.18000030517578,165.97000122070312 113.18000030517578,162.5500030517578 110.80000305175781,158.8800048828125 C109.58000183105469,156.99000549316406 107.68000030517578,156.3000030517578 106.04000091552734,155.1199951171875 C105.9800033569336,154.17999267578125 105.91000366210938,153.22000122070312 105.8499984741211,152.27999877929688 C106.0999984741211,151.19000244140625 106.36000061035156,150.08999633789062 106.66999816894531,148.72000122070312 C105,148.72000122070312 103.5,148.83999633789062 102.0199966430664,148.6999969482422 C99.30000305175781,148.44000244140625 96.44999694824219,149.5500030517578 93.8499984741211,147.9600067138672 C93.80000305175781,147.25999450683594 93.76000213623047,146.5500030517578 93.70999908447266,145.85000610351562 C93.83000183105469,144.22999572753906 94.31999969482422,142.5399932861328 92.54000091552734,141.3800048828125 C92,141.02999877929688 91.98999786376953,140.77999877929688 92.5,139.92999267578125 C94.38999938964844,136.77999877929688 91.87999725341797,130.19000244140625 88.7300033569336,129.02000427246094 C87.33000183105469,128.5 85.94000244140625,128.80999755859375 84.54000091552734,128.85000610351562 C83.52999877929688,128.8000030517578 82.55000305175781,128.69000244140625 81.75,127.97000122070312 C78.48999786376953,125.94000244140625 75.19999694824219,123.94999694824219 71.55000305175781,122.66999816894531 C71.48999786376953,122.52999877929688 71.4000015258789,122.44999694824219 71.26000213623047,122.4000015258789 C70.87000274658203,121.69999694824219 70.30999755859375,121.44000244140625 69.52999877929688,121.69000244140625 C68.0999984741211,121.63999938964844 66.68000030517578,121.58000183105469 65.25,121.54000091552734 C64.4000015258789,119.56999969482422 62.41999816894531,119.0199966430664 60.810001373291016,118.01000213623047 C60.79999923706055,117.7699966430664 60.79999923706055,117.5199966430664 60.790000915527344,117.27999877929688 C57.099998474121094,112.77999877929688 58.560001373291016,107.47000122070312 58.81999969482422,101.93000030517578 C56.29999923706055,103.83000183105469 53.84000015258789,102.80999755859375 51.54999923706055,103.30999755859375 C49.099998474121094,103.83999633789062 47.369998931884766,105.26000213623047 45.630001068115234,106.61000061035156 C43.709999084472656,108.0999984741211 41,108.01000213623047 39.47999954223633,110.05000305175781 C38.290000915527344,110.76000213623047 37.099998474121094,111.45999908447266 35.90999984741211,112.16999816894531 C34.459999084472656,110.91999816894531 32.790000915527344,110.58000183105469 30.950000762939453,110.97000122070312 C28.030000686645508,110.12999725341797 25.280000686645508,112.0199966430664 22.389999389648438,111.5199966430664 C22.389999389648438,111.5199966430664 22.389999389648438,101.5 22.389999389648438,101.5 C21.56999969482422,101.73999786376953 21.209999084472656,101.7699966430664 20.950000762939453,101.94000244140625 C15.550000190734863,105.62999725341797 15,105.55000305175781 10.520000457763672,101.04000091552734 C9.979999542236328,100.5 9.010000228881836,99.87999725341797 7.940000057220459,100.1500015258789 C7.130000114440918,100.3499984741211 6.170000076293945,99.7300033569336 6.190000057220459,99.2699966430664 C6.360000133514404,95.8499984741211 3.380000114440918,94.25 1.940000057220459,91.80999755859375 C-1.059999942779541,86.69000244140625 -0.7400000095367432,84.08999633789062 4.079999923706055,80.7300033569336 C4.940000057220459,80.13999938964844 5.260000228881836,79.51000213623047 5.079999923706055,78.36000061035156 C4.460000038146973,74.44999694824219 8.9399995803833,67.8499984741211 12.739999771118164,67.30999755859375 C16.969999313354492,66.72000122070312 20.8799991607666,64.43000030517578 25.329999923706055,65.08000183105469 C26.600000381469727,65.2699966430664 27.260000228881836,64.43000030517578 27.350000381469727,63.150001525878906 C27.600000381469727,59.43000030517578 28.889999389648438,55.869998931884766 29.329999923706055,52.209999084472656 C29.790000915527344,48.459999084472656 31.239999771118164,44.79999923706055 29.700000762939453,40.72999954223633 C28.959999084472656,38.779998779296875 26.149999618530273,38.939998626708984 26.530000686645508,36.54999923706055 C26.579999923706055,35.150001525878906 26.6299991607666,33.7400016784668 26.68000030517578,32.34000015258789 C28.100000381469727,31.729999542236328 29.3799991607666,30.510000228881836 31.110000610351562,31.299999237060547 C31.600000381469727,31.520000457763672 32.06999969482422,31.610000610351562 32.2400016784668,31.030000686645508 C32.36000061035156,30.6200008392334 32.36000061035156,30.059999465942383 32.16999816894531,29.690000534057617 C31.670000076293945,28.690000534057617 30.649999618530273,28.809999465942383 29.709999084472656,28.649999618530273 C27.420000076293945,28.239999771118164 28.010000228881836,26.329999923706055 28.139999389648438,24.940000534057617 C28.309999465942383,23.110000610351562 29.709999084472656,23.540000915527344 30.799999237060547,24.040000915527344 C34.47999954223633,25.719999313354492 37.880001068115234,23.079999923706055 41.470001220703125,23.440000534057617 C41.630001068115234,23.450000762939453 41.79999923706055,23.110000610351562 41.9900016784668,22.969999313354492 C44.560001373291016,21.100000381469727 46.15999984741211,21.81999969482422 46.65999984741211,25.049999237060547 C46.79999923706055,25.969999313354492 46.529998779296875,27.40999984741211 47.029998779296875,27.75 C50.130001068115234,29.90999984741211 53.720001220703125,30.6299991607666 57.470001220703125,30.479999542236328 C58.880001068115234,30.420000076293945 59.34000015258789,28.969999313354492 60.279998779296875,28.209999084472656 C60.63999938964844,27.920000076293945 60.97999954223633,27.420000076293945 61.38999938964844,27.360000610351562 C66.22000122070312,26.6200008392334 68.0199966430664,21.520000457763672 72.69000244140625,20.270000457763672 C71.38999938964844,19 70.29000091552734,19.510000228881836 69.30999755859375,19.43000030517578 C68.41999816894531,19.360000610351562 67.48999786376953,19.1200008392334 67.68000030517578,18.15999984741211 C68.08999633789062,15.989999771118164 66.94000244140625,14.15999984741211 66.62999725341797,12.15999984741211 C66.41999816894531,10.829999923706055 65.05999755859375,9.029999732971191 65.5199966430664,8.390000343322754 C66.88999938964844,6.5 67.3499984741211,9.800000190734863 68.7699966430664,9.40999984741211 C69.31999969482422,9.260000228881836 70,9.510000228881836 70.54000091552734,9.34000015258789 C71.94000244140625,8.899999618530273 72.87000274658203,9.350000381469727 73.87000274658203,10.380000114440918 C75.2300033569336,11.770000457763672 75.26000213623047,11.640000343322754 76.01000213623047,9.470000267028809 C76.44999694824219,8.199999809265137 77.9000015258789,7.409999847412109 78.91999816894531,7.420000076293945 C84.18000030517578,7.449999809265137 88.33999633789062,5.769999980926514 91.2300033569336,1.159999966621399 C91.72000122070312,0.3700000047683716 93.08000183105469,-0.4099999964237213 94.33000183105469,0.25 C95.47000122070312,0.8500000238418579 95.37999725341797,1.9900000095367432 95.26000213623047,3.0799999237060547 C95.19000244140625,3.7300000190734863 93.69999694824219,4.769999980926514 95.22000122070312,4.929999828338623 C97.73999786376953,5.199999809265137 97.16999816894531,7.510000228881836 98.25,8.670000076293945 C98.25,8.670000076293945 98.08000183105469,10.079999923706055 98.08000183105469,10.079999923706055 C92.86000061035156,15.729999542236328 96.45999908447266,25.31999969482422 102.80000305175781,27.399999618530273 C103.6500015258789,27.68000030517578 104.33999633789062,27.5 104.55999755859375,27.170000076293945 C106.12000274658203,24.8799991607666 108.66999816894531,24.989999771118164 110.9000015258789,24.299999237060547 C112.33000183105469,23.860000610351562 113.91000366210938,21.649999618530273 114.75,22.3700008392334 C117.63999938964844,24.84000015258789 120.27999877929688,21.8700008392334 123.2699966430664,23.209999084472656 C121.6500015258789,19.989999771118164 121.87000274658203,18.5 123.44999694824219,18.790000915527344 C126.81999969482422,19.40999984741211 130.55999755859375,17.8799991607666 133.61000061035156,20.610000610351562 C134.3000030517578,21.219999313354492 135.52000427246094,21.049999237060547 136.35000610351562,20.6299991607666 C138.19000244140625,19.690000534057617 139.99000549316406,19.989999771118164 141.80999755859375,20.469999313354492 C143.8300018310547,21.010000228881836 145.1999969482422,20.280000686645508 145.97000122070312,18.440000534057617 C147.35000610351562,15.140000343322754 149.38999938964844,12.220000267028809 151.36000061035156,9.279999732971191 C151.47000122070312,9.210000038146973 151.5500030517578,9.109999656677246 151.5800018310547,8.970000267028809 C152.89999389648438,8.619999885559082 152.86000061035156,6.239999771118164 154.17999267578125,6.650000095367432 C155.5800018310547,7.090000152587891 156.35000610351562,8.699999809265137 156.69000244140625,10.270000457763672 C156.74000549316406,10.5 156.72999572753906,10.739999771118164 156.72000122070312,10.979999542236328 C156.47000122070312,14.09000015258789 157.77999877929688,16.81999969482422 158.6999969482422,19.670000076293945 C159.39999389648438,21.84000015258789 160.19000244140625,23.549999237060547 162.80999755859375,23.690000534057617 C164.05999755859375,23.75 164.6699981689453,24.6299991607666 164.6199951171875,25.889999389648438 C164.5399932861328,27.899999618530273 163.9600067138672,29.940000534057617 162.13999938964844,30.760000228881836 C159.91000366210938,31.770000457763672 161.60000610351562,31.889999389648438 162.19000244140625,32.599998474121094 C162.64999389648438,33.150001525878906 163.75999450683594,32.4900016784668 163.72999572753906,33.75 C161.3000030517578,34.709999084472656 159.17999267578125,36.41999816894531 156.36000061035156,36.86000061035156 C155.3300018310547,37.02000045776367 153.72000122070312,39.36000061035156 154.1300048828125,39.5099983215332 C157.92999267578125,40.939998626708984 153.8300018310547,42.790000915527344 154.69000244140625,44.86000061035156 C155.32000732421875,42.939998626708984 157.8300018310547,43.41999816894531 157.82000732421875,41.65999984741211 C157.8000030517578,38.790000915527344 160.27000427246094,35.900001525878906 162.94000244140625,36.63999938964844 C166.58999633789062,37.65999984741211 170.22999572753906,37.04999923706055 173.8800048828125,37.150001525878906 C174.3300018310547,37.43000030517578 174.77999877929688,37.709999084472656 175.22999572753906,37.9900016784668 C173.94000244140625,42.900001525878906 171.3800048828125,46.65999984741211 165.77000427246094,47.849998474121094 C167.1300048828125,48.66999816894531 169.02000427246094,48.65999984741211 167.72999572753906,50.79999923706055 C169.22000122070312,50.5 168.4600067138672,49.290000915527344 168.88999938964844,49.04999923706055 C172.24000549316406,47.13999938964844 175.55999755859375,45.2599983215332 176.8800048828125,41.2400016784668 C176.9600067138672,40.9900016784668 177.6999969482422,40.779998779296875 178.08999633789062,40.83000183105469 C180.24000549316406,41.11000061035156 182.25,39.70000076293945 184.72999572753906,41.2400016784668 C186.02999877929688,42.04999923706055 188.0800018310547,43.70000076293945 190.30999755859375,42.9900016784668 C191.0500030517578,43.900001525878906 191.9499969482422,44.439998626708984 193.1699981689453,44.2400016784668 C193.4499969482422,44.45000076293945 193.7100067138672,44.7599983215332 194.02000427246094,44.849998474121094 C198.11000061035156,45.90999984741211 201.92999267578125,47.189998626708984 202.57000732421875,52.310001373291016 C202.6699981689453,53.099998474121094 203.77000427246094,53.5099983215332 204.9600067138672,53.130001068115234 C208.85000610351562,51.900001525878906 212.66000366210938,52.18000030517578 216.13999938964844,54.439998626708984 C217.42999267578125,55.279998779296875 218.50999450683594,55.189998626708984 219.6199951171875,54.2599983215332 C222.39999389648438,56.86000061035156 225.74000549316406,56.02000045776367 228.82000732421875,55.40999984741211 C231.0399932861328,54.970001220703125 232.83999633789062,55.11000061035156 234.6199951171875,56.38999938964844 C236.91000366210938,57.88999938964844 239.32000732421875,59.29999923706055 241.6699981689453,60.599998474121094 C244.25,62.029998779296875 245.00999450683594,65.43000030517578 248.1699981689453,65.87999725341797 C248.1699981689453,65.87999725341797 248.14999389648438,65.86000061035156 248.14999389648438,65.86000061035156 C250.9199981689453,68.62000274658203 254.05999755859375,71.04000091552734 258.1000061035156,70.68000030517578 C263.25,70.22000122070312 264.7799987792969,70.91999816894531 266,75.83999633789062 C266.19000244140625,76.62999725341797 266.3299865722656,77.44000244140625 266.5199890136719,78.2300033569336 C267.8900146484375,83.9800033569336 269.1199951171875,89.61000061035156 266.2699890136719,95.45999908447266 C265.3299865722656,97.4000015258789 263.55999755859375,98.25 262.7200012207031,99.9000015258789 C260.95001220703125,103.41000366210938 258.6099853515625,106.23999786376953 255.35000610351562,108.5 C253.8800048828125,109.51000213623047 252.52999877929688,110.9000015258789 251.58999633789062,112.63999938964844 C249.61000061035156,116.27999877929688 247.4499969482422,119.83000183105469 245.17999267578125,123.30000305175781 C244.77000427246094,123.94000244140625 243.77000427246094,126.97000122070312 242.52000427246094,123.55000305175781 C242.27000427246094,122.86000061035156 241.58999633789062,122.69999694824219 241.07000732421875,123.73999786376953 C238.5,128.82000732421875 238.9199981689453,134.39999389648438 239.25999450683594,139.64999389648438 C239.5,143.32000732421875 240.13999938964844,146.86000061035156 238.8000030517578,150.35000610351562 C238.38999938964844,151.39999389648438 238.50999450683594,152.4600067138672 238.19000244140625,153.3800048828125 C237.47000122070312,155.4499969482422 239.36000061035156,157.9600067138672 236.8800048828125,159.74000549316406 C234.9199981689453,161.14999389648438 234.17999267578125,163.35000610351562 234.58999633789062,165.67999267578125 C235.72999572753906,172.1300048828125 230.77000427246094,176.00999450683594 228.07000732421875,180.7100067138672 C226.83999633789062,182.85000610351562 225.22999572753906,184.89999389648438 225.52000427246094,187.17999267578125 C225.80999755859375,189.52000427246094 224.92999267578125,190.2899932861328 223.16000366210938,190.8300018310547 C220.3300018310547,191.6999969482422 218.4499969482422,193.25 218.83999633789062,196.5399932861328 C215.0399932861328,196.5 211.22999572753906,196.49000549316406 207.47000122070312,197.17999267578125 C204.88999938964844,196.3800048828125 202.35000610351562,197.22000122070312 201.38999938964844,199.14999389648438 C201.32000732421875,199.3000030517578 201.00999450683594,199.4199981689453 200.82000732421875,199.4199981689453 C197.05999755859375,199.3699951171875 194.9199981689453,202.86000061035156 191.00999450683594,203.41000366210938 C186.50999450683594,204.0500030517578 182.7100067138672,207.9600067138672 179.19000244140625,211.11000061035156 C176.3699951171875,213.6300048828125 172.75,216.13999938964844 173.1999969482422,220.86000061035156 C172.17999267578125,222.52999877929688 173.60000610351562,224.1699981689453 173.27000427246094,225.83999633789062 C173.27000427246094,227.50999450683594 173.27000427246094,229.1699981689453 173.27000427246094,230.83999633789062 C173.22999572753906,232.97999572753906 173.1699981689453,235.11000061035156 173.1300048828125,237.25 C164.47999572753906,243.16000366210938 162.7100067138672,253.89999389648438 156.1300048828125,262.44000244140625 C155.63999938964844,258 159.9499969482422,256.6199951171875 159.3000030517578,253.16000366210938 C156.85000610351562,252.52000427246094 155.35000610351562,253.6699981689453 154.66000366210938,255.99000549316406 C154.11000061035156,257.82000732421875 153.4600067138672,259.44000244140625 151.5,260.2200012207031 C149.86000061035156,260.8699951171875 149.2100067138672,263.44000244140625 149.3699951171875,263.8999938964844 C150.8000030517578,268.1600036621094 147.11000061035156,270.7799987792969 146.19000244140625,274.2200012207031 C145.47999572753906,276.8699951171875 143.5,280.0299987792969 139.60000610351562,279.989990234375 C139.60000610351562,279.989990234375 139.6199951171875,280.010009765625 139.6199951171875,280.010009765625 C139.6199951171875,280.010009765625 139.6199951171875,280.010009765625 139.6199951171875,280.010009765625z"></path></g><g transform="matrix(1,0,0,1,130.32998657226562,108.25)" opacity="1" style="display: block;"><path fill="rgb(255,120,29)" fill-opacity="1" d=" M17.149999618530273,8.569999694824219 C17.149999618530273,13.300000190734863 13.300000190734863,17.139999389648438 8.569999694824219,17.139999389648438 C3.8399999141693115,17.139999389648438 0,13.300000190734863 0,8.569999694824219 C0,3.8399999141693115 3.8399999141693115,0 8.569999694824219,0 C13.300000190734863,0 17.149999618530273,3.8399999141693115 17.149999618530273,8.569999694824219 C17.149999618530273,8.569999694824219 17.149999618530273,8.569999694824219 17.149999618530273,8.569999694824219z"></path></g><g transform="matrix(1,0,0,1,68.38999938964844,61.86000061035156)" opacity="1" style="display: block;"><path fill="rgb(255,120,29)" fill-opacity="1" d=" M13.789999961853027,6.889999866485596 C13.789999961853027,10.699999809265137 10.699999809265137,13.779999732971191 6.889999866485596,13.779999732971191 C3.0799999237060547,13.779999732971191 0,10.699999809265137 0,6.889999866485596 C0,3.0799999237060547 3.0799999237060547,0 6.889999866485596,0 C10.699999809265137,0 13.789999961853027,3.0799999237060547 13.789999961853027,6.889999866485596 C13.789999961853027,6.889999866485596 13.789999961853027,6.889999866485596 13.789999961853027,6.889999866485596z"></path></g><g transform="matrix(1,0,0,1,195.4600067138672,152.52999877929688)" opacity="1" style="display: block;"><path fill="rgb(255,120,29)" fill-opacity="1" d=" M15.119999885559082,7.550000190734863 C15.119999885559082,11.720000267028809 11.729999542236328,15.109999656677246 7.559999942779541,15.109999656677246 C3.390000104904175,15.109999656677246 0,11.720000267028809 0,7.550000190734863 C0,3.380000114440918 3.390000104904175,0 7.559999942779541,0 C11.729999542236328,0 15.119999885559082,3.380000114440918 15.119999885559082,7.550000190734863 C15.119999885559082,7.550000190734863 15.119999885559082,7.550000190734863 15.119999885559082,7.550000190734863z"></path></g><g transform="matrix(1,0,0,1,210.57000732421875,78.94999694824219)" opacity="1" style="display: block;"><path fill="rgb(255,120,29)" fill-opacity="1" d=" M23.549999237060547,11.770000457763672 C23.549999237060547,18.270000457763672 18.280000686645508,23.540000915527344 11.779999732971191,23.540000915527344 C5.28000020980835,23.540000915527344 0,18.270000457763672 0,11.770000457763672 C0,5.269999980926514 5.28000020980835,0 11.779999732971191,0 C18.280000686645508,0 23.549999237060547,5.269999980926514 23.549999237060547,11.770000457763672 C23.549999237060547,11.770000457763672 23.549999237060547,11.770000457763672 23.549999237060547,11.770000457763672z"></path></g><g transform="matrix(1,0,0,1,143.22000122070312,190.89999389648438)" opacity="1" style="display: block;"><path fill="rgb(255,120,29)" fill-opacity="1" d=" M13,6.5 C13,10.09000015258789 10.09000015258789,12.989999771118164 6.5,12.989999771118164 C2.9100000858306885,12.989999771118164 0,10.09000015258789 0,6.5 C0,2.9100000858306885 2.9100000858306885,0 6.5,0 C10.09000015258789,0 13,2.9100000858306885 13,6.5 C13,6.5 13,6.5 13,6.5z"></path></g><g transform="matrix(1,0,0,1,75.2800064086914,68.75)" opacity="1" style="display: block;"><path stroke-linecap="butt" stroke-linejoin="miter" fill-opacity="0" stroke-miterlimit="10" stroke="rgb(255,120,29)" stroke-opacity="1" stroke-width="4" d=" M72.94000244140625,125.05999755859375 C72.94000244140625,125.05999755859375 63.619998931884766,50.5099983215332 63.619998931884766,50.5099983215332 C63.619998931884766,50.5099983215332 0,0 0,0 C0,0 147.0800018310547,19.3799991607666 147.0800018310547,19.3799991607666 C147.0800018310547,19.3799991607666 63.619998931884766,48.06999969482422 63.619998931884766,48.06999969482422 C63.619998931884766,48.06999969482422 127.73999786376953,91.33000183105469 127.73999786376953,91.33000183105469 C127.73999786376953,91.33000183105469 72.94000244140625,131.5500030517578 72.94000244140625,131.5500030517578"></path></g><g transform="matrix(1,0,0,1,75.2800064086914,34.779998779296875)" opacity="1" style="display: block;"><path stroke-linecap="butt" stroke-linejoin="miter" fill-opacity="0" stroke-miterlimit="10" stroke="rgb(255,120,29)" stroke-opacity="1" stroke-width="4" d=" M72.19000244140625,162.6300048828125 C72.19000244140625,162.6300048828125 0,33.97999954223633 0,33.97999954223633 C0,33.97999954223633 51.970001220703125,0 51.970001220703125,0 C51.970001220703125,0 147.0800018310547,53.36000061035156 147.0800018310547,53.36000061035156 C147.0800018310547,53.36000061035156 127.73999786376953,125.30999755859375 127.73999786376953,125.30999755859375"></path></g><g transform="matrix(1,0,0,1,127.24000549316406,34.779998779296875)" opacity="1" style="display: block;"><path stroke-linecap="butt" stroke-linejoin="miter" fill-opacity="0" stroke-miterlimit="10" stroke="rgb(255,120,29)" stroke-opacity="1" stroke-width="4" d=" M11.649999618530273,76.86000061035156 C11.649999618530273,76.86000061035156 0,0 0,0"></path></g><g transform="matrix(1,0,0,1,126.43999481201172,68.75)" opacity="1" style="display: block;"><path fill="rgb(255,120,29)" fill-opacity="1" d=" M14.460000038146973,7.230000019073486 C14.460000038146973,11.220000267028809 11.220000267028809,14.449999809265137 7.230000019073486,14.449999809265137 C3.240000009536743,14.449999809265137 0,11.220000267028809 0,7.230000019073486 C0,3.240000009536743 3.240000009536743,0 7.230000019073486,0 C11.220000267028809,0 14.460000038146973,3.240000009536743 14.460000038146973,7.230000019073486 C14.460000038146973,7.230000019073486 14.460000038146973,7.230000019073486 14.460000038146973,7.230000019073486z"></path></g><g transform="matrix(1,0,0,1,140.07000732421875,237.5500030517578)" opacity="1" style="display: block;"><path fill="rgb(255,120,29)" fill-opacity="1" d=" M12.34000015258789,6.170000076293945 C12.34000015258789,9.579999923706055 9.579999923706055,12.34000015258789 6.170000076293945,12.34000015258789 C2.759999990463257,12.34000015258789 0,9.579999923706055 0,6.170000076293945 C0,2.759999990463257 2.759999990463257,0 6.170000076293945,0 C9.579999923706055,0 12.34000015258789,2.759999990463257 12.34000015258789,6.170000076293945 C12.34000015258789,6.170000076293945 12.34000015258789,6.170000076293945 12.34000015258789,6.170000076293945z"></path></g><g transform="matrix(1,0,0,1,119.20999908447266,27.549999237060547)" opacity="1" style="display: block;"><path fill="rgb(255,120,29)" fill-opacity="1" d=" M14.460000038146973,7.230000019073486 C14.460000038146973,11.220000267028809 11.220000267028809,14.449999809265137 7.230000019073486,14.449999809265137 C3.240000009536743,14.449999809265137 0,11.220000267028809 0,7.230000019073486 C0,3.240000009536743 3.240000009536743,0 7.230000019073486,0 C11.220000267028809,0 14.460000038146973,3.240000009536743 14.460000038146973,7.230000019073486 C14.460000038146973,7.230000019073486 14.460000038146973,7.230000019073486 14.460000038146973,7.230000019073486z"></path></g><g transform="matrix(1,0,0,1,53.93000030517578,34.769996643066406)" opacity="1" style="display: block;"><path fill="rgb(255,120,29)" fill-opacity="1" d=" M12.34000015258789,6.170000076293945 C12.34000015258789,9.579999923706055 9.579999923706055,12.34000015258789 6.170000076293945,12.34000015258789 C2.759999990463257,12.34000015258789 0,9.579999923706055 0,6.170000076293945 C0,2.759999990463257 2.759999990463257,0 6.170000076293945,0 C9.579999923706055,0 12.34000015258789,2.759999990463257 12.34000015258789,6.170000076293945 C12.34000015258789,6.170000076293945 12.34000015258789,6.170000076293945 12.34000015258789,6.170000076293945z"></path></g><g transform="matrix(1,0,0,1,88.52999877929688,97.04000091552734)" opacity="1" style="display: block;"><path fill="rgb(255,120,29)" fill-opacity="1" d=" M12.34000015258789,6.170000076293945 C12.34000015258789,9.579999923706055 9.579999923706055,12.34000015258789 6.170000076293945,12.34000015258789 C2.759999990463257,12.34000015258789 0,9.579999923706055 0,6.170000076293945 C0,2.759999990463257 2.759999990463257,0 6.170000076293945,0 C9.579999923706055,0 12.34000015258789,2.759999990463257 12.34000015258789,6.170000076293945 C12.34000015258789,6.170000076293945 12.34000015258789,6.170000076293945 12.34000015258789,6.170000076293945z"></path></g><g transform="matrix(1,0,0,1,28.330001831054688,78.93999481201172)" opacity="1" style="display: block;"><path fill="rgb(255,120,29)" fill-opacity="1" d=" M14.460000038146973,7.230000019073486 C14.460000038146973,11.220000267028809 11.220000267028809,14.449999809265137 7.230000019073486,14.449999809265137 C3.240000009536743,14.449999809265137 0,11.220000267028809 0,7.230000019073486 C0,3.240000009536743 3.240000009536743,0 7.230000019073486,0 C11.220000267028809,0 14.460000038146973,3.240000009536743 14.460000038146973,7.230000019073486 C14.460000038146973,7.230000019073486 14.460000038146973,7.230000019073486 14.460000038146973,7.230000019073486z"></path></g><g transform="matrix(1,0,0,1,35.55999755859375,40.93000030517578)" opacity="1" style="display: block;"><path stroke-linecap="butt" stroke-linejoin="miter" fill-opacity="0" stroke-miterlimit="10" stroke="rgb(255,120,29)" stroke-opacity="1" stroke-width="4" d=" M39.720001220703125,27.81999969482422 C39.720001220703125,27.81999969482422 24.540000915527344,0 24.540000915527344,0 C24.540000915527344,0 0,45.22999954223633 0,45.22999954223633 C0,45.22999954223633 39.720001220703125,27.81999969482422 39.720001220703125,27.81999969482422 C39.720001220703125,27.81999969482422 39.720001220703125,27.81999969482422 39.720001220703125,27.81999969482422z"></path></g><g transform="matrix(1,0,0,1,60.099998474121094,34.779998779296875)" opacity="1" style="display: block;"><path stroke-linecap="butt" stroke-linejoin="miter" fill-opacity="0" stroke-miterlimit="10" stroke="rgb(255,120,29)" stroke-opacity="1" stroke-width="4" d=" M0,6.159999847412109 C0,6.159999847412109 66.3499984741211,0 66.3499984741211,0"></path></g><g transform="matrix(1,0,0,1,35.55999755859375,86.16000366210938)" opacity="1" style="display: block;"><path stroke-linecap="butt" stroke-linejoin="miter" fill-opacity="0" stroke-miterlimit="10" stroke="rgb(255,120,29)" stroke-opacity="1" stroke-width="4" d=" M0,0 C0,0 101.08999633789062,30.610000610351562 101.08999633789062,30.610000610351562"></path></g><g transform="matrix(1,0,0,1,146.24000549316406,163.10000610351562)" opacity="1" style="display: block;"><path stroke-linecap="butt" stroke-linejoin="miter" fill-opacity="0" stroke-miterlimit="10" stroke="rgb(255,120,29)" stroke-opacity="1" stroke-width="4" d=" M56.779998779296875,0 C56.779998779296875,0 0,80.62000274658203 0,80.62000274658203 C0,80.62000274658203 3.4700000286102295,40.02000045776367 3.4700000286102295,40.02000045776367"></path></g><g transform="matrix(1,0,0,1,210,38.356571197509766)" opacity="1" style="display: block;"><path fill-rule="evenodd" fill="rgb(26,51,167)" fill-opacity="1" d=" M14.5,9.420000076293945 C11.569999694824219,9.420000076293945 9.199999809265137,11.779999732971191 9.199999809265137,14.710000038146973 C9.199999809265137,17.639999389648438 11.569999694824219,20.010000228881836 14.5,20.010000228881836 C17.43000030517578,20.010000228881836 19.799999237060547,17.639999389648438 19.799999237060547,14.710000038146973 C19.799999237060547,11.779999732971191 17.43000030517578,9.420000076293945 14.5,9.420000076293945 C14.5,9.420000076293945 14.5,9.420000076293945 14.5,9.420000076293945z M0,14.449999809265137 C0.029999999329447746,6.440000057220459 6.539999961853027,-0.029999999329447746 14.550000190734863,0 C22.559999465942383,0.029999999329447746 29.030000686645508,6.539999961853027 29,14.550000190734863 C29,14.550000190734863 29,14.699999809265137 29,14.699999809265137 C29,14.699999809265137 29,14.720000267028809 29,14.720000267028809 C28.899999618530273,19.920000076293945 26.010000228881836,24.639999389648438 22.600000381469727,28.229999542236328 C22.600000381469727,28.229999542236328 22.600000381469727,28.229999542236328 22.600000381469727,28.229999542236328 C20.65999984741211,30.25 18.489999771118164,32.029998779296875 16.139999389648438,33.54999923706055 C15.180000305175781,34.33000183105469 13.8100004196167,34.33000183105469 12.850000381469727,33.54999923706055 C9.34000015258789,31.260000228881836 6.260000228881836,28.3700008392334 3.75,25.020000457763672 C1.440000057220459,22 0.12999999523162842,18.329999923706055 0,14.529999732971191 C0,14.520000457763672 0,14.510000228881836 0,14.5 C0,14.5 0,14.449999809265137 0,14.449999809265137 C0,14.449999809265137 0,14.449999809265137 0,14.449999809265137 C0,14.449999809265137 0,14.449999809265137 0,14.449999809265137z"></path></g><g transform="matrix(1,0,0,1,125,64.03656768798828)" opacity="1" style="display: block;"><path fill-rule="evenodd" fill="rgb(26,51,167)" fill-opacity="1" d=" M14.5,9.420000076293945 C11.569999694824219,9.420000076293945 9.199999809265137,11.779999732971191 9.199999809265137,14.710000038146973 C9.199999809265137,17.639999389648438 11.569999694824219,20.010000228881836 14.5,20.010000228881836 C17.43000030517578,20.010000228881836 19.799999237060547,17.639999389648438 19.799999237060547,14.710000038146973 C19.799999237060547,11.779999732971191 17.43000030517578,9.420000076293945 14.5,9.420000076293945 C14.5,9.420000076293945 14.5,9.420000076293945 14.5,9.420000076293945z M0,14.449999809265137 C0.029999999329447746,6.440000057220459 6.539999961853027,-0.029999999329447746 14.550000190734863,0 C22.559999465942383,0.029999999329447746 29.030000686645508,6.539999961853027 29,14.550000190734863 C29,14.550000190734863 29,14.699999809265137 29,14.699999809265137 C29,14.699999809265137 29,14.720000267028809 29,14.720000267028809 C28.899999618530273,19.920000076293945 26.010000228881836,24.639999389648438 22.600000381469727,28.229999542236328 C22.600000381469727,28.229999542236328 22.600000381469727,28.229999542236328 22.600000381469727,28.229999542236328 C20.65999984741211,30.25 18.489999771118164,32.029998779296875 16.139999389648438,33.54999923706055 C15.180000305175781,34.33000183105469 13.8100004196167,34.33000183105469 12.850000381469727,33.54999923706055 C9.34000015258789,31.260000228881836 6.260000228881836,28.3700008392334 3.75,25.020000457763672 C1.440000057220459,22 0.12999999523162842,18.329999923706055 0,14.529999732971191 C0,14.520000457763672 0,14.510000228881836 0,14.5 C0,14.5 0,14.449999809265137 0,14.449999809265137 C0,14.449999809265137 0,14.449999809265137 0,14.449999809265137 C0,14.449999809265137 0,14.449999809265137 0,14.449999809265137z"></path></g><g transform="matrix(1,0,0,1,150,29.036571502685547)" opacity="1" style="display: block;"><path fill-rule="evenodd" fill="rgb(26,51,167)" fill-opacity="1" d=" M14.5,9.420000076293945 C11.569999694824219,9.420000076293945 9.199999809265137,11.779999732971191 9.199999809265137,14.710000038146973 C9.199999809265137,17.639999389648438 11.569999694824219,20.010000228881836 14.5,20.010000228881836 C17.43000030517578,20.010000228881836 19.799999237060547,17.639999389648438 19.799999237060547,14.710000038146973 C19.799999237060547,11.779999732971191 17.43000030517578,9.420000076293945 14.5,9.420000076293945 C14.5,9.420000076293945 14.5,9.420000076293945 14.5,9.420000076293945z M0,14.449999809265137 C0.029999999329447746,6.440000057220459 6.539999961853027,-0.029999999329447746 14.550000190734863,0 C22.559999465942383,0.029999999329447746 29.030000686645508,6.539999961853027 29,14.550000190734863 C29,14.550000190734863 29,14.699999809265137 29,14.699999809265137 C29,14.699999809265137 29,14.720000267028809 29,14.720000267028809 C28.899999618530273,19.920000076293945 26.010000228881836,24.639999389648438 22.600000381469727,28.229999542236328 C22.600000381469727,28.229999542236328 22.600000381469727,28.229999542236328 22.600000381469727,28.229999542236328 C20.65999984741211,30.25 18.489999771118164,32.029998779296875 16.139999389648438,33.54999923706055 C15.180000305175781,34.33000183105469 13.8100004196167,34.33000183105469 12.850000381469727,33.54999923706055 C9.34000015258789,31.260000228881836 6.260000228881836,28.3700008392334 3.75,25.020000457763672 C1.440000057220459,22 0.12999999523162842,18.329999923706055 0,14.529999732971191 C0,14.520000457763672 0,14.510000228881836 0,14.5 C0,14.5 0,14.449999809265137 0,14.449999809265137 C0,14.449999809265137 0,14.449999809265137 0,14.449999809265137 C0,14.449999809265137 0,14.449999809265137 0,14.449999809265137z"></path></g><g transform="matrix(1,0,0,1,160,75.03656768798828)" opacity="1" style="display: block;"><path fill-rule="evenodd" fill="rgb(26,51,167)" fill-opacity="1" d=" M14.5,9.420000076293945 C11.569999694824219,9.420000076293945 9.199999809265137,11.779999732971191 9.199999809265137,14.710000038146973 C9.199999809265137,17.639999389648438 11.569999694824219,20.010000228881836 14.5,20.010000228881836 C17.43000030517578,20.010000228881836 19.799999237060547,17.639999389648438 19.799999237060547,14.710000038146973 C19.799999237060547,11.779999732971191 17.43000030517578,9.420000076293945 14.5,9.420000076293945 C14.5,9.420000076293945 14.5,9.420000076293945 14.5,9.420000076293945z M0,14.449999809265137 C0.029999999329447746,6.440000057220459 6.539999961853027,-0.029999999329447746 14.550000190734863,0 C22.559999465942383,0.029999999329447746 29.030000686645508,6.539999961853027 29,14.550000190734863 C29,14.550000190734863 29,14.699999809265137 29,14.699999809265137 C29,14.699999809265137 29,14.720000267028809 29,14.720000267028809 C28.899999618530273,19.920000076293945 26.010000228881836,24.639999389648438 22.600000381469727,28.229999542236328 C22.600000381469727,28.229999542236328 22.600000381469727,28.229999542236328 22.600000381469727,28.229999542236328 C20.65999984741211,30.25 18.489999771118164,32.029998779296875 16.139999389648438,33.54999923706055 C15.180000305175781,34.33000183105469 13.8100004196167,34.33000183105469 12.850000381469727,33.54999923706055 C9.34000015258789,31.260000228881836 6.260000228881836,28.3700008392334 3.75,25.020000457763672 C1.440000057220459,22 0.12999999523162842,18.329999923706055 0,14.529999732971191 C0,14.520000457763672 0,14.510000228881836 0,14.5 C0,14.5 0,14.449999809265137 0,14.449999809265137 C0,14.449999809265137 0,14.449999809265137 0,14.449999809265137 C0,14.449999809265137 0,14.449999809265137 0,14.449999809265137z"></path></g></g></svg>